<svg xmlns="http://www.w3.org/2000/svg" xmlns:xlink="http://www.w3.org/1999/xlink" contentStyleType="text/css" data-diagram-type="ACTIVITY" height="1278px" preserveAspectRatio="none" style="width:1360px;height:1278px;background:#FFFFFF;" version="1.1" viewBox="0 0 1360 1278" width="1360px" zoomAndPan="magnify"><?plantuml 1.2026.6?><defs/><g><rect fill="none" height="41.9063" style="stroke:none;stroke-width:1;" width="1313.489" x="20" y="17.7451"/><ellipse cx="120.667" cy="74.6514" fill="#222222" rx="10" ry="10" style="stroke:#222222;stroke-width:1;"/><rect fill="#F1F1F1" height="33.9688" rx="12.5" ry="12.5" style="stroke:#181818;stroke-width:0.5;" width="89.2754" x="76.0293" y="104.6514"/><text fill="#000000" font-family="sans-serif" font-size="12" lengthAdjust="spacing" textLength="69.2754" x="86.0293" y="125.79">Shutdown()</text><line style="stroke:#000000;stroke-width:1.5;" x1="20" x2="20" y1="17.7451" y2="1257.4678"/><rect fill="#F1F1F1" height="33.9688" rx="12.5" ry="12.5" style="stroke:#181818;stroke-width:0.5;" width="75.2539" x="295.0781" y="207.0225"/><text fill="#000000" font-family="sans-serif" font-size="12" lengthAdjust="spacing" textLength="55.2539" x="305.0781" y="228.1611">return nil</text><ellipse cx="332.7051" cy="280.5068" fill="none" rx="11" ry="11" style="stroke:#222222;stroke-width:1;"/><ellipse cx="332.7051" cy="280.5068" fill="#222222" rx="6" ry="6" style="stroke:#222222;stroke-width:1;"/><polygon fill="#F1F1F1" points="298.7195,158.6201,366.6907,158.6201,378.6907,170.6201,366.6907,182.6201,298.7195,182.6201,286.7195,170.6201,298.7195,158.6201" style="stroke:#181818;stroke-width:0.5;stroke-linejoin:miter;stroke-miterlimit:10;"/><text fill="#000000" font-family="sans-serif" font-size="11" lengthAdjust="spacing" textLength="19.0083" x="336.7051" y="192.8306">yes</text><text fill="#000000" font-family="sans-serif" font-size="11" lengthAdjust="spacing" textLength="67.9712" x="298.7195" y="174.4282">conf == nil?</text><rect fill="#F1F1F1" height="33.9688" rx="12.5" ry="12.5" style="stroke:#181818;stroke-width:0.5;" width="135.3945" x="265.0078" y="333.5068"/><text fill="#000000" font-family="sans-serif" font-size="12" lengthAdjust="spacing" textLength="115.3945" x="275.0078" y="354.6455">DisableReadiness()</text><rect fill="#F1F1F1" height="33.9688" rx="12.5" ry="12.5" style="stroke:#181818;stroke-width:0.5;" width="213.8047" x="225.8027" y="387.4756"/><text fill="#000000" font-family="sans-serif" font-size="12" lengthAdjust="spacing" textLength="193.8047" x="235.8027" y="408.6143">wait DisableReadinessTimeout()</text><rect fill="#F1F1F1" height="33.9688" rx="12.5" ry="12.5" style="stroke:#181818;stroke-width:0.5;" width="205.9824" x="229.7139" y="489.8467"/><text fill="#000000" font-family="sans-serif" font-size="12" lengthAdjust="spacing" textLength="185.9824" x="239.7139" y="510.9854">return ErrCtxCancel + ctx.Err()</text><ellipse cx="332.7051" cy="563.3311" fill="none" rx="11" ry="11" style="stroke:#222222;stroke-width:1;"/><ellipse cx="332.7051" cy="563.3311" fill="#222222" rx="6" ry="6" style="stroke:#222222;stroke-width:1;"/><polygon fill="#F1F1F1" points="287.1851,441.4443,378.2251,441.4443,390.2251,453.4443,378.2251,465.4443,287.1851,465.4443,275.1851,453.4443,287.1851,441.4443" style="stroke:#181818;stroke-width:0.5;stroke-linejoin:miter;stroke-miterlimit:10;"/><text fill="#000000" font-family="sans-serif" font-size="11" lengthAdjust="spacing" textLength="19.0083" x="336.7051" y="475.6548">yes</text><text fill="#000000" font-family="sans-serif" font-size="11" lengthAdjust="spacing" textLength="91.04" x="287.1851" y="457.2524">mgr.run.Done()?</text><rect fill="#F1F1F1" height="33.9688" rx="12.5" ry="12.5" style="stroke:#181818;stroke-width:0.5;" width="147.4531" x="258.9785" y="616.3311"/><text fill="#000000" font-family="sans-serif" font-size="12" lengthAdjust="spacing" textLength="127.4531" x="268.9785" y="637.4697">stop() -&gt; runCancel()</text><rect fill="#F1F1F1" height="33.9688" rx="12.5" ry="12.5" style="stroke:#181818;stroke-width:0.5;" width="198.0898" x="233.6602" y="670.2998"/><text fill="#000000" font-family="sans-serif" font-size="12" lengthAdjust="spacing" textLength="178.0898" x="243.6602" y="691.4385">wait done with StopTimeout()</text><rect fill="#F1F1F1" height="33.9688" rx="12.5" ry="12.5" style="stroke:#181818;stroke-width:0.5;" width="211.7422" x="226.834" y="772.6709"/><text fill="#000000" font-family="sans-serif" font-size="12" lengthAdjust="spacing" textLength="191.7422" x="236.834" y="793.8096">return ErrManagerIsNotStopped</text><ellipse cx="332.7051" cy="846.624" fill="none" rx="11" ry="11" style="stroke:#222222;stroke-width:1;"/><ellipse cx="332.7051" cy="846.624" fill="#222222" rx="6" ry="6" style="stroke:#222222;stroke-width:1;"/><polygon fill="#F1F1F1" points="308.3525,724.2686,357.0576,724.2686,369.0576,736.2686,357.0576,748.2686,308.3525,748.2686,296.3525,736.2686,308.3525,724.2686" style="stroke:#181818;stroke-width:0.5;stroke-linejoin:miter;stroke-miterlimit:10;"/><text fill="#000000" font-family="sans-serif" font-size="11" lengthAdjust="spacing" textLength="19.0083" x="336.7051" y="758.479">yes</text><text fill="#000000" font-family="sans-serif" font-size="11" lengthAdjust="spacing" textLength="48.7051" x="308.3525" y="740.0767">timeout?</text><rect fill="#F1F1F1" height="33.9688" rx="12.5" ry="12.5" style="stroke:#181818;stroke-width:0.5;" width="214.7422" x="225.334" y="1127.5303"/><text fill="#000000" font-family="sans-serif" font-size="12" lengthAdjust="spacing" textLength="194.7422" x="235.334" y="1148.6689">join errors from Close + DrainAll</text><rect fill="#F1F1F1" height="33.9688" rx="12.5" ry="12.5" style="stroke:#181818;stroke-width:0.5;" width="116.4512" x="274.4795" y="1181.499"/><text fill="#000000" font-family="sans-serif" font-size="12" lengthAdjust="spacing" textLength="96.4512" x="284.4795" y="1202.6377">return error | nil</text><ellipse cx="332.7051" cy="1246.4678" fill="none" rx="11" ry="11" style="stroke:#222222;stroke-width:1;"/><ellipse cx="332.7051" cy="1246.4678" fill="#222222" rx="6" ry="6" style="stroke:#222222;stroke-width:1;"/><line style="stroke:#000000;stroke-width:1.5;" x1="219.334" x2="219.334" y1="17.7451" y2="1257.4678"/><rect fill="#F1F1F1" height="33.9688" rx="12.5" ry="12.5" style="stroke:#181818;stroke-width:0.5;" width="111.1543" x="598.9323" y="899.624"/><text fill="#000000" font-family="sans-serif" font-size="12" lengthAdjust="spacing" textLength="91.1543" x="608.9323" y="920.7627">List connectors</text><polygon fill="#F1F1F1" points="609.4379,953.5928,699.5809,953.5928,711.5809,965.5928,699.5809,977.5928,609.4379,977.5928,597.4379,965.5928,609.4379,953.5928" style="stroke:#181818;stroke-width:0.5;stroke-linejoin:miter;stroke-miterlimit:10;"/><text fill="#000000" font-family="sans-serif" font-size="11" lengthAdjust="spacing" textLength="90.1431" x="609.4379" y="969.4009">&#1077;&#1089;&#1090;&#1100; connector?</text><line style="stroke:#000000;stroke-width:1.5;" x1="464.6963" x2="464.6963" y1="17.7451" y2="1257.4678"/><rect fill="#F1F1F1" height="33.9688" rx="12.5" ry="12.5" style="stroke:#181818;stroke-width:0.5;" width="125.9785" x="907.6555" y="997.5928"/><text fill="#000000" font-family="sans-serif" font-size="12" lengthAdjust="spacing" textLength="105.9785" x="917.6555" y="1018.7314">connector.Close()</text><line style="stroke:#000000;stroke-width:1.5;" x1="826.3225" x2="826.3225" y1="17.7451" y2="1257.4678"/><rect fill="#F1F1F1" height="33.9688" rx="12.5" ry="12.5" style="stroke:#181818;stroke-width:0.5;" width="76.707" x="1184.9441" y="1073.5615"/><text fill="#000000" font-family="sans-serif" font-size="12" lengthAdjust="spacing" textLength="56.707" x="1194.9441" y="1094.7002">DrainAll()</text><line style="stroke:#000000;stroke-width:1.5;" x1="1112.967" x2="1112.967" y1="17.7451" y2="1257.4678"/><line style="stroke:#000000;stroke-width:1.5;" x1="1331.6282" x2="1331.6282" y1="17.7451" y2="1257.4678"/><polygon fill="#181818" points="1041.634,1006.5771,1045.634,996.5771,1049.634,1006.5771,1045.634,1002.5771" style="stroke:#181818;stroke-width:1;stroke-linejoin:miter;stroke-miterlimit:10;"/><line style="stroke:#181818;stroke-width:1;" x1="120.667" x2="120.667" y1="84.6514" y2="104.6514"/><polygon fill="#181818" points="116.667,94.6514,120.667,104.6514,124.667,94.6514,120.667,98.6514" style="stroke:#181818;stroke-width:1;stroke-linejoin:miter;stroke-miterlimit:10;"/><line style="stroke:#181818;stroke-width:1;" x1="332.7051" x2="332.7051" y1="240.9912" y2="269.5068"/><polygon fill="#181818" points="328.7051,259.5068,332.7051,269.5068,336.7051,259.5068,332.7051,263.5068" style="stroke:#181818;stroke-width:1;stroke-linejoin:miter;stroke-miterlimit:10;"/><line style="stroke:#181818;stroke-width:1;" x1="332.7051" x2="332.7051" y1="182.6201" y2="207.0225"/><polygon fill="#181818" points="328.7051,197.0225,332.7051,207.0225,336.7051,197.0225,332.7051,201.0225" style="stroke:#181818;stroke-width:1;stroke-linejoin:miter;stroke-miterlimit:10;"/><line style="stroke:#181818;stroke-width:1;" x1="378.6907" x2="390.6907" y1="170.6201" y2="170.6201"/><polygon fill="#181818" points="386.6907,239.5068,390.6907,249.5068,394.6907,239.5068,390.6907,243.5068" style="stroke:#181818;stroke-width:1;stroke-linejoin:miter;stroke-miterlimit:10;"/><line style="stroke:#181818;stroke-width:1;" x1="390.6907" x2="390.6907" y1="170.6201" y2="313.5068"/><line style="stroke:#181818;stroke-width:1;" x1="390.6907" x2="332.7051" y1="313.5068" y2="313.5068"/><line style="stroke:#181818;stroke-width:1;" x1="332.7051" x2="332.7051" y1="313.5068" y2="333.5068"/><polygon fill="#181818" points="328.7051,323.5068,332.7051,333.5068,336.7051,323.5068,332.7051,327.5068" style="stroke:#181818;stroke-width:1;stroke-linejoin:miter;stroke-miterlimit:10;"/><line style="stroke:#181818;stroke-width:1;" x1="332.7051" x2="332.7051" y1="367.4756" y2="387.4756"/><polygon fill="#181818" points="328.7051,377.4756,332.7051,387.4756,336.7051,377.4756,332.7051,381.4756" style="stroke:#181818;stroke-width:1;stroke-linejoin:miter;stroke-miterlimit:10;"/><line style="stroke:#181818;stroke-width:1;" x1="332.7051" x2="332.7051" y1="523.8154" y2="552.3311"/><polygon fill="#181818" points="328.7051,542.3311,332.7051,552.3311,336.7051,542.3311,332.7051,546.3311" style="stroke:#181818;stroke-width:1;stroke-linejoin:miter;stroke-miterlimit:10;"/><line style="stroke:#181818;stroke-width:1;" x1="332.7051" x2="332.7051" y1="465.4443" y2="489.8467"/><polygon fill="#181818" points="328.7051,479.8467,332.7051,489.8467,336.7051,479.8467,332.7051,483.8467" style="stroke:#181818;stroke-width:1;stroke-linejoin:miter;stroke-miterlimit:10;"/><line style="stroke:#181818;stroke-width:1;" x1="390.2251" x2="445.6963" y1="453.4443" y2="453.4443"/><polygon fill="#181818" points="441.6963,522.3311,445.6963,532.3311,449.6963,522.3311,445.6963,526.3311" style="stroke:#181818;stroke-width:1;stroke-linejoin:miter;stroke-miterlimit:10;"/><line style="stroke:#181818;stroke-width:1;" x1="445.6963" x2="445.6963" y1="453.4443" y2="596.3311"/><line style="stroke:#181818;stroke-width:1;" x1="445.6963" x2="332.7051" y1="596.3311" y2="596.3311"/><line style="stroke:#181818;stroke-width:1;" x1="332.7051" x2="332.7051" y1="596.3311" y2="616.3311"/><polygon fill="#181818" points="328.7051,606.3311,332.7051,616.3311,336.7051,606.3311,332.7051,610.3311" style="stroke:#181818;stroke-width:1;stroke-linejoin:miter;stroke-miterlimit:10;"/><line style="stroke:#181818;stroke-width:1;" x1="332.7051" x2="332.7051" y1="421.4443" y2="441.4443"/><polygon fill="#181818" points="328.7051,431.4443,332.7051,441.4443,336.7051,431.4443,332.7051,435.4443" style="stroke:#181818;stroke-width:1;stroke-linejoin:miter;stroke-miterlimit:10;"/><line style="stroke:#181818;stroke-width:1;" x1="332.7051" x2="332.7051" y1="650.2998" y2="670.2998"/><polygon fill="#181818" points="328.7051,660.2998,332.7051,670.2998,336.7051,660.2998,332.7051,664.2998" style="stroke:#181818;stroke-width:1;stroke-linejoin:miter;stroke-miterlimit:10;"/><line style="stroke:#181818;stroke-width:1;" x1="332.7051" x2="332.7051" y1="806.6396" y2="835.624"/><polygon fill="#181818" points="328.7051,825.624,332.7051,835.624,336.7051,825.624,332.7051,829.624" style="stroke:#181818;stroke-width:1;stroke-linejoin:miter;stroke-miterlimit:10;"/><line style="stroke:#181818;stroke-width:1;" x1="332.7051" x2="332.7051" y1="748.2686" y2="772.6709"/><polygon fill="#181818" points="328.7051,762.6709,332.7051,772.6709,336.7051,762.6709,332.7051,766.6709" style="stroke:#181818;stroke-width:1;stroke-linejoin:miter;stroke-miterlimit:10;"/><line style="stroke:#181818;stroke-width:1;" x1="369.0576" x2="654.5094" y1="736.2686" y2="736.2686"/><polygon fill="#181818" points="650.5094,816.6396,654.5094,826.6396,658.5094,816.6396,654.5094,820.6396" style="stroke:#181818;stroke-width:1;stroke-linejoin:miter;stroke-miterlimit:10;"/><line style="stroke:#181818;stroke-width:1;" x1="654.5094" x2="654.5094" y1="736.2686" y2="899.624"/><polygon fill="#181818" points="650.5094,889.624,654.5094,899.624,658.5094,889.624,654.5094,893.624" style="stroke:#181818;stroke-width:1;stroke-linejoin:miter;stroke-miterlimit:10;"/><line style="stroke:#181818;stroke-width:1;" x1="332.7051" x2="332.7051" y1="704.2686" y2="724.2686"/><polygon fill="#181818" points="328.7051,714.2686,332.7051,724.2686,336.7051,714.2686,332.7051,718.2686" style="stroke:#181818;stroke-width:1;stroke-linejoin:miter;stroke-miterlimit:10;"/><line style="stroke:#181818;stroke-width:1;" x1="332.7051" x2="332.7051" y1="1161.499" y2="1181.499"/><polygon fill="#181818" points="328.7051,1171.499,332.7051,1181.499,336.7051,1171.499,332.7051,1175.499" style="stroke:#181818;stroke-width:1;stroke-linejoin:miter;stroke-miterlimit:10;"/><line style="stroke:#181818;stroke-width:1;" x1="332.7051" x2="332.7051" y1="1215.4678" y2="1235.4678"/><polygon fill="#181818" points="328.7051,1225.4678,332.7051,1235.4678,336.7051,1225.4678,332.7051,1229.4678" style="stroke:#181818;stroke-width:1;stroke-linejoin:miter;stroke-miterlimit:10;"/><line style="stroke:#181818;stroke-width:1;" x1="597.4379" x2="583.4379" y1="965.5928" y2="965.5928"/><polygon fill="#181818" points="579.4379,1007.3271,583.4379,1017.3271,587.4379,1007.3271,583.4379,1011.3271" style="stroke:#181818;stroke-width:1;stroke-linejoin:miter;stroke-miterlimit:10;"/><line style="stroke:#181818;stroke-width:1;" x1="583.4379" x2="583.4379" y1="965.5928" y2="1058.5615"/><line style="stroke:#181818;stroke-width:1;" x1="583.4379" x2="1223.2976" y1="1058.5615" y2="1058.5615"/><line style="stroke:#181818;stroke-width:1;" x1="1223.2976" x2="1223.2976" y1="1058.5615" y2="1073.5615"/><polygon fill="#181818" points="1219.2976,1063.5615,1223.2976,1073.5615,1227.2976,1063.5615,1223.2976,1067.5615" style="stroke:#181818;stroke-width:1;stroke-linejoin:miter;stroke-miterlimit:10;"/><line style="stroke:#181818;stroke-width:1;" x1="654.5094" x2="654.5094" y1="933.5928" y2="953.5928"/><polygon fill="#181818" points="650.5094,943.5928,654.5094,953.5928,658.5094,943.5928,654.5094,947.5928" style="stroke:#181818;stroke-width:1;stroke-linejoin:miter;stroke-miterlimit:10;"/><line style="stroke:#181818;stroke-width:1;" x1="120.667" x2="120.667" y1="138.6201" y2="143.6201"/><line style="stroke:#181818;stroke-width:1;" x1="120.667" x2="332.7051" y1="143.6201" y2="143.6201"/><line style="stroke:#181818;stroke-width:1;" x1="332.7051" x2="332.7051" y1="143.6201" y2="158.6201"/><polygon fill="#181818" points="328.7051,148.6201,332.7051,158.6201,336.7051,148.6201,332.7051,152.6201" style="stroke:#181818;stroke-width:1;stroke-linejoin:miter;stroke-miterlimit:10;"/><line style="stroke:#181818;stroke-width:1;" x1="654.5094" x2="654.5094" y1="977.5928" y2="985.5928"/><line style="stroke:#181818;stroke-width:1;" x1="654.5094" x2="970.6448" y1="985.5928" y2="985.5928"/><line style="stroke:#181818;stroke-width:1;" x1="970.6448" x2="970.6448" y1="985.5928" y2="997.5928"/><polygon fill="#181818" points="966.6448,987.5928,970.6448,997.5928,974.6448,987.5928,970.6448,991.5928" style="stroke:#181818;stroke-width:1;stroke-linejoin:miter;stroke-miterlimit:10;"/><line style="stroke:#181818;stroke-width:1;" x1="970.6448" x2="970.6448" y1="1031.5615" y2="1041.5615"/><line style="stroke:#181818;stroke-width:1;" x1="970.6448" x2="1045.634" y1="1041.5615" y2="1041.5615"/><line style="stroke:#181818;stroke-width:1;" x1="1045.634" x2="1045.634" y1="965.5928" y2="1041.5615"/><line style="stroke:#181818;stroke-width:1;" x1="1045.634" x2="711.5809" y1="965.5928" y2="965.5928"/><polygon fill="#181818" points="721.5809,961.5928,711.5809,965.5928,721.5809,969.5928,717.5809,965.5928" style="stroke:#181818;stroke-width:1;stroke-linejoin:miter;stroke-miterlimit:10;"/><line style="stroke:#181818;stroke-width:1;" x1="1223.2976" x2="1223.2976" y1="1107.5303" y2="1112.5303"/><line style="stroke:#181818;stroke-width:1;" x1="1223.2976" x2="332.7051" y1="1112.5303" y2="1112.5303"/><line style="stroke:#181818;stroke-width:1;" x1="332.7051" x2="332.7051" y1="1112.5303" y2="1127.5303"/><polygon fill="#181818" points="328.7051,1117.5303,332.7051,1127.5303,336.7051,1117.5303,332.7051,1121.5303" style="stroke:#181818;stroke-width:1;stroke-linejoin:miter;stroke-miterlimit:10;"/><text fill="#000000" font-family="sans-serif" font-size="18" lengthAdjust="spacing" textLength="189.334" x="25" y="34.4531">&#1054;&#1073;&#1097;&#1077;&#1077; &#1087;&#1088;&#1080;&#1083;&#1086;&#1078;&#1077;&#1085;&#1080;&#1077;</text><text fill="#000000" font-family="sans-serif" font-size="18" lengthAdjust="spacing" textLength="177.9961" x="253.0171" y="34.4531">\manager::Manager</text><text fill="#000000" font-family="sans-serif" font-size="18" lengthAdjust="spacing" textLength="355.5439" x="467.7374" y="34.4531">\internal\connector::ConnectorManager</text><text fill="#000000" font-family="sans-serif" font-size="18" lengthAdjust="spacing" textLength="276.6445" x="831.3225" y="34.4531">\internal\connector::Connector</text><text fill="#000000" font-family="sans-serif" font-size="18" lengthAdjust="spacing" textLength="75.4453" x="1117.967" y="34.4531">\internal</text><text fill="#000000" font-family="sans-serif" font-size="18" lengthAdjust="spacing" textLength="208.6611" x="1117.967" y="55.4063">ifecycle::DrainManager</text><?plantuml-src ZP9DJiCm48NtFiKi4o5w05UbGYqB9611MNPZaWanSkpATfHMoWBO8N46xi2Y20a1Lt1kXDtqHqGgi9lnZETzy-pQFRkNvj4jtHBSLtFdtjox-tIl_k33nykQ6Ckq9NIIbpPLbOpYFY7rj62ItQ2czBmDQi8pY18bCnWCG78nZC7cA25Qe8a90DLeIor3gUzJOzMCe4nvHWWTSyEk1LuYIxb4Ou86hHYtqArSyG9LQKD3q2jkT4-NiZTM4gDud-I9rYCx7p6Pe803IEoyvu_2Z0v7IA8O3e_03stxToYfru2Asnmclgq3Ojlq5uArJwVcGjamO8PfLx-UScbHIoQctaY9YLNUuD4ct3fDpxYni6qnVLBbN214RjdSDm_Dqwus31H_pAq3wBRG6mbbi3Ndlq2UVqNmOmN1CqmMYK1AnvfnkSDVfST2xFrAz5Pn2QYrNmuohGfOGVctsrprZxAsTjK5TVklWflV?></g></svg>